<?xml version="1.0" encoding="iso-8859-1"?>
<!-- Generator: Adobe Illustrator 17.1.0, SVG Export Plug-In . SVG Version: 6.00 Build 0)  -->
<!DOCTYPE svg PUBLIC "-//W3C//DTD SVG 1.1//EN" "http://www.w3.org/Graphics/SVG/1.1/DTD/svg11.dtd">
<svg xmlns="http://www.w3.org/2000/svg" xmlns:xlink="http://www.w3.org/1999/xlink" version="1.1" id="Capa_1" x="0px" y="0px" viewBox="0 0 236.169 236.169" style="enable-background:new 0 0 236.169 236.169;" xml:space="preserve" width="512px" height="512px">
<path d="M121.181,53.095c-36.928,0-66.972,30.043-66.972,66.972s30.043,66.972,66.972,66.972s66.972-30.043,66.972-66.972  S158.109,53.095,121.181,53.095z M121.181,166.633c-25.677,0-46.567-20.89-46.567-46.567S95.503,73.5,121.181,73.5  s46.567,20.89,46.567,46.567S146.858,166.633,121.181,166.633z M152.748,120.066c0,17.406-14.161,31.567-31.567,31.567  s-31.567-14.161-31.567-31.567S103.774,88.5,121.181,88.5S152.748,102.66,152.748,120.066z M236.169,88.023  c0,0.267-0.015,0.53-0.042,0.789c-0.275,6.702-3.987,12.574-9.527,16.053v85.391c0,6.449-5.246,11.695-11.695,11.695  s-11.695-5.246-11.695-11.695v-85.392c-5.539-3.479-9.251-9.352-9.526-16.053c-0.027-0.259-0.042-0.523-0.042-0.789V46.388  c0-4.142,3.358-7.5,7.5-7.5c3.083,0,5.729,1.862,6.882,4.521c1.153-2.659,3.799-4.521,6.882-4.521c3.083,0,5.729,1.862,6.882,4.521  c1.153-2.659,3.799-4.521,6.882-4.521c4.142,0,7.5,3.358,7.5,7.5V88.023z M37.226,99.807v85.779c0,6.449-5.247,11.695-11.695,11.695  s-11.695-5.246-11.695-11.695V99.808C5.557,94.139,0,82.556,0,68.879c0-19.437,11.214-34.663,25.531-34.663  c14.316,0,25.53,15.226,25.53,34.663C51.061,82.556,45.505,94.138,37.226,99.807z" fill="#f00044"/>
<g>
</g>
<g>
</g>
<g>
</g>
<g>
</g>
<g>
</g>
<g>
</g>
<g>
</g>
<g>
</g>
<g>
</g>
<g>
</g>
<g>
</g>
<g>
</g>
<g>
</g>
<g>
</g>
<g>
</g>
</svg>
