<?xml version="1.0" encoding="iso-8859-1"?>
<!-- Generator: Adobe Illustrator 16.0.0, SVG Export Plug-In . SVG Version: 6.00 Build 0)  -->
<!DOCTYPE svg PUBLIC "-//W3C//DTD SVG 1.1//EN" "http://www.w3.org/Graphics/SVG/1.1/DTD/svg11.dtd">
<svg xmlns="http://www.w3.org/2000/svg" xmlns:xlink="http://www.w3.org/1999/xlink" version="1.1" id="Capa_1" x="0px" y="0px" width="512px" height="512px" viewBox="0 0 45.539 45.54" style="enable-background:new 0 0 45.539 45.54;" xml:space="preserve">
<g>
	<g>
		<path d="M45.45,37.221l-3.322-18.925c-0.491-2.802-2.912-4.827-5.757-4.827h-9.783c-0.595,1.499-1.487,3.404-2.815,5.857v13.625    H4.819l0.521-2.957h7.619c0.83,0,1.568-0.521,1.848-1.303l1.457-4.085c-1.354-0.328-2.555-1.171-3.316-2.365l-1.371,3.846H6.025    l1.249-7.123c0.162-0.921,0.958-1.59,1.894-1.59h1.116c-0.777-1.538-1.351-2.812-1.771-3.869    c-2.554,0.283-4.647,2.206-5.102,4.789l-3.322,18.93c-0.3,1.706,0.168,3.449,1.282,4.774c1.112,1.326,2.744,2.093,4.476,2.093    h33.847c1.731,0,3.363-0.769,4.478-2.095C45.283,40.672,45.75,38.928,45.45,37.221z M27.68,17.376h8.691    c0.936,0,1.729,0.669,1.893,1.59l1.073,6.119H27.68V17.376z M27.68,28.993h12.343l0.695,3.961H27.68V28.993z M13.809,40.133H5.846    c-0.569,0-1.104-0.24-1.472-0.678c-0.366-0.436-0.521-1-0.422-1.562l0.183-1.035h12.07L13.809,40.133z M41.164,39.458    c-0.366,0.437-0.902,0.677-1.473,0.677h-21.03l2.396-3.273h2.714h3.907h13.724l0.184,1.035    C41.685,38.456,41.529,39.021,41.164,39.458z" fill="#f00044"/>
		<path d="M17.535,21.818c0.896,0,1.722-0.478,2.17-1.253c2.142-3.706,5.1-9.29,5.1-11.851c0-4.013-3.253-7.268-7.268-7.268    c-4.014,0-7.269,3.255-7.269,7.268c0,2.56,2.957,8.142,5.1,11.849C15.814,21.338,16.641,21.817,17.535,21.818z M13.812,6.691    c1.029-1.027,2.694-1.029,3.726-0.008c1.03-1.021,2.694-1.02,3.724,0.008c1.03,1.03,1.03,2.701,0,3.73    c-0.051,0.051-2.495,2.483-3.396,3.379c-0.183,0.181-0.477,0.181-0.657,0c-0.899-0.896-3.346-3.328-3.396-3.379    C12.782,9.392,12.782,7.721,13.812,6.691z" fill="#f00044"/>
	</g>
</g>
<g>
</g>
<g>
</g>
<g>
</g>
<g>
</g>
<g>
</g>
<g>
</g>
<g>
</g>
<g>
</g>
<g>
</g>
<g>
</g>
<g>
</g>
<g>
</g>
<g>
</g>
<g>
</g>
<g>
</g>
</svg>
