<?xml version="1.0" encoding="iso-8859-1"?>
<!-- Generator: Adobe Illustrator 18.1.1, SVG Export Plug-In . SVG Version: 6.00 Build 0)  -->
<svg xmlns="http://www.w3.org/2000/svg" xmlns:xlink="http://www.w3.org/1999/xlink" version="1.1" id="Capa_1" x="0px" y="0px" viewBox="0 0 16.133 16.133" style="enable-background:new 0 0 16.133 16.133;" xml:space="preserve" width="512px" height="512px">
<g>
	<g>
		<path d="M8.066,0C5.097,0,2.688,2.409,2.688,5.379c0,0.58,0.095,1.137,0.265,1.66    c0.381,1.345,4.775,9.094,4.775,9.094s4.667-6.776,5.373-8.871c0.22-0.586,0.346-1.219,0.346-1.884C13.446,2.408,11.038,0,8.066,0    z M8.066,8.829c-1.895,0-3.43-1.536-3.43-3.43c0-1.896,1.536-3.433,3.43-3.433c1.896,0,3.432,1.537,3.432,3.433    C11.497,7.292,9.962,8.829,8.066,8.829z M9.367,3.31c-0.04-0.005-0.08-0.007-0.123-0.007c-0.422,0-0.899,0.204-1.178,0.59    c-0.279-0.386-0.756-0.59-1.177-0.59c-0.041,0-0.083,0.002-0.123,0.007C6.28,3.361,5.939,3.524,5.724,3.806    c-0.213,0.28-0.283,0.661-0.205,1.136c0.189,1.153,2.322,3.003,2.413,3.081C7.973,8.06,8.025,8.076,8.075,8.076    c0.052,0,0.103-0.017,0.145-0.053c0.09-0.08,2.206-1.928,2.393-3.081c0.078-0.474,0.01-0.856-0.202-1.135    C10.195,3.524,9.854,3.361,9.367,3.31z M10.31,5.121c0,0-0.083-1.237-1.182-1.402C9.128,3.718,10.448,3.527,10.31,5.121z" fill="#f00044"/>
	</g>
</g>
<g>
</g>
<g>
</g>
<g>
</g>
<g>
</g>
<g>
</g>
<g>
</g>
<g>
</g>
<g>
</g>
<g>
</g>
<g>
</g>
<g>
</g>
<g>
</g>
<g>
</g>
<g>
</g>
<g>
</g>
</svg>
